<svg width="24" height="24" viewBox="0 0 24 24" fill="none" xmlns="http://www.w3.org/2000/svg">
<rect width="24" height="24" fill="#DDEAEE"/>
<path d="M8.20028 9.47544C8.04586 9.47544 7.94378 9.63593 8.00924 9.7758L12.7382 19.8785C12.7729 19.9526 12.8473 20 12.9292 20H14.9005C14.9822 20 15.0565 19.9528 15.0913 19.8789L19.8489 9.77624C19.9148 9.63634 19.8127 9.47544 19.6581 9.47544H17.3667C17.2829 9.47544 17.2071 9.525 17.1735 9.60173L15.9599 12.3716L13.8997 17.1636L12.1531 12.9986L11.8844 12.3716L10.6855 9.60256C10.652 9.52539 10.576 9.47544 10.4919 9.47544H8.20028Z" fill="#0077AA"/>
<path d="M7.64355 16.5466V5.15198H15.3854V7.10764H10.1649V9.8876H15.0137V11.8271H10.1649V16.5466H7.64355Z" fill="#11BBDD"/>
</svg>
