<svg width="32" height="32" viewBox="0 0 32 32" fill="none" xmlns="http://www.w3.org/2000/svg">
<rect x="0.25" y="0.25" width="31.5" height="31.5" rx="15.75" fill="#DDEAEE"/>
<path d="M10.4378 13.3002C10.1928 13.3002 10.0308 13.5549 10.1347 13.7768L17.6383 29.8072C17.6934 29.9248 17.8115 30 17.9414 30H21.0694C21.199 30 21.3169 29.9252 21.3722 29.8079L28.9212 13.7775C29.0258 13.5555 28.8638 13.3002 28.6184 13.3002H24.9825C24.8496 13.3002 24.7293 13.3789 24.676 13.5006L22.7503 17.8956L19.4814 25.4993L16.71 18.8905L16.2836 17.8956L14.3812 13.5019C14.3282 13.3795 14.2075 13.3002 14.074 13.3002H10.4378Z" fill="#0077AA"/>
<path d="M9.5542 24.5202V6.43994H21.8385V9.54309H13.5549V13.9542H21.2487V17.0317H13.5549V24.5202H9.5542Z" fill="#11BBDD"/>
<rect x="0.25" y="0.25" width="31.5" height="31.5" rx="15.75" stroke="white" stroke-width="0.5"/>
</svg>
